<svg width="22" height="22" viewBox="0 0 22 22" fill="none" xmlns="http://www.w3.org/2000/svg">
<path d="M1.5 0C1.77614 0 2 0.223858 2 0.5V1H20V0.5C20 0.223858 20.2239 0 20.5 0H21.5C21.7761 0 22 0.223858 22 0.5V1.5C22 1.77614 21.7761 2 21.5 2H21V20H21.5C21.7761 20 22 20.2239 22 20.5V21.5C22 21.7761 21.7761 22 21.5 22H20.5C20.2239 22 20 21.7761 20 21.5V21H2V21.5C2 21.7761 1.77614 22 1.5 22H0.5C0.223858 22 0 21.7761 0 21.5V20.5C0 20.2239 0.223858 20 0.5 20H1V2H0.5C0.223858 2 0 1.77614 0 1.5V0.5C0 0.223858 0.223858 0 0.5 0H1.5ZM10 3H3.5C3.22386 3 3 3.22386 3 3.5V18.5C3 18.7761 3.22386 19 3.5 19H10V3ZM18.5 3H12V19H18.5C18.7761 19 19 18.7761 19 18.5V3.5C19 3.22386 18.7761 3 18.5 3ZM13.5 4C13.7761 4 14 4.22386 14 4.5V14H15.5C15.7761 14 16 14.2239 16 14.5C16 14.7761 15.7761 15 15.5 15H14V17.5C14 17.7761 13.7761 18 13.5 18C13.2239 18 13 17.7761 13 17.5V4.5C13 4.22386 13.2239 4 13.5 4ZM8.5 4C8.77614 4 9 4.22386 9 4.5V17.5C9 17.7761 8.77614 18 8.5 18C8.22386 18 8 17.7761 8 17.5V15H6.5C6.22386 15 6 14.7761 6 14.5C6 14.2239 6.22386 14 6.5 14H8V4.5C8 4.22386 8.22386 4 8.5 4Z" fill="currentColor"/>
</svg>
