<svg id="Layer_1" data-name="Layer 1" xmlns="http://www.w3.org/2000/svg" viewBox="0 0 280 300"><defs><style>.cls-1{fill:#006991;fill-rule:evenodd;}</style></defs><title>IATA Logo</title><path class="cls-1" d="M83.14,201.18l6.45-32.53h10.59l-6.46,32.53ZM115,190.6h6.72l-1.81-12-4.91,12Zm-14.84,10.58,16-32.53h10.46l6.45,32.53h-9.68l-.64-3.87H112.44l-1.68,3.87Zm42.6,0,3.74-24.4h-9.3l1.55-8.26h28.4l-1.55,8.26h-8.78l-3.61,24.4Zm35.49-10.58H185l-1.67-12-5,12Zm-14.71,10.58,15.87-32.53h10.46l6.58,32.53h-9.94l-.38-3.87H175.69L174,201.18Zm55.89-69.32H169.88c-1.81,9.17-8.13,16.78-20.78,22.08,1.42,4.39,6.33,8.39,11.36,8.39h27c4.13,0,7.35-3.49,8.65-6.33H168.72c-1.68-.26-1.68-1.55-.13-1.8h27c3.48,0,6.58-3,8.39-6.2H172.72c-1.68-.26-1.68-1.55,0-1.81h31.5c3.22,0,6.06-3.74,7.23-6.19h-34.6c-1.68-.26-1.68-1.81,0-1.94h35.24c2.84,0,5.42-3,7.36-6.2Zm-158.9,0h49.57c1.81,9.17,8.13,16.78,20.78,22.08-1.42,4.39-6.33,8.39-11.36,8.39h-27c-4.13,0-7.35-3.49-8.65-6.33h27.37c1.68-.26,1.68-1.55.13-1.8h-27c-3.48,0-6.58-3-8.39-6.2h31.24c1.68-.26,1.68-1.55,0-1.81H75.78c-3.22,0-6.06-3.74-7.23-6.19h34.6c1.68-.26,1.68-1.81,0-1.94H67.91c-2.84,0-5.42-3-7.36-6.2Zm63.38-27.36a22.94,22.94,0,0,0,6.07,3.87,31.81,31.81,0,0,1,7.48-9.55,25,25,0,0,0-13.55,5.68Zm-8.78,18.2h11.1a33,33,0,0,1,3-12.78,27.44,27.44,0,0,1-6.71-4.13,25.12,25.12,0,0,0-7.36,16.91Zm24-10.46V122.7h-11.1a30.84,30.84,0,0,1,2.84-12.13,25.27,25.27,0,0,0,8.26,1.67Zm16.91-7.74a22.94,22.94,0,0,1-6.07,3.87,33.68,33.68,0,0,0-7.48-9.55,25,25,0,0,1,13.55,5.68Zm8.78,18.2h-11.1a36.06,36.06,0,0,0-2.84-12.78,29.33,29.33,0,0,0,6.58-4.13,25.28,25.28,0,0,1,7.36,16.91ZM141,112.24V122.7h11a28.29,28.29,0,0,0-2.84-12.13,25.2,25.2,0,0,1-8.13,1.67Zm-17,30.34a22.78,22.78,0,0,1,6.07-3.75,31.89,31.89,0,0,0,7.48,9.56,25.21,25.21,0,0,1-13.55-5.81Zm-8.78-18.07h11.1a34.21,34.21,0,0,0,3,12.78,27.44,27.44,0,0,0-6.71,4.13,25.73,25.73,0,0,1-7.36-16.91Zm24,10.45V124.51h-11.1a29.22,29.22,0,0,0,2.84,12,25.42,25.42,0,0,1,8.26-1.55Zm16.91,7.62a24.12,24.12,0,0,0-6.07-3.75,31.89,31.89,0,0,1-7.48,9.56,25.21,25.21,0,0,0,13.55-5.81Zm8.78-18.07h-11.1a33.72,33.72,0,0,1-2.84,12.78,29.33,29.33,0,0,1,6.58,4.13,26,26,0,0,0,7.36-16.91ZM141,135V124.51h11a27.73,27.73,0,0,1-2.84,12A24.65,24.65,0,0,0,141,135Zm-1.81-35.11a28.93,28.93,0,0,0-7.49,9.17,25,25,0,0,0,7.49,1.42V99.85Zm1.81,0a30.41,30.41,0,0,1,7.36,9.17,21.4,21.4,0,0,1-7.36,1.42V99.85Zm-1.81,47.5a28.89,28.89,0,0,1-7.49-9.16,21.54,21.54,0,0,1,7.49-1.42v10.58Zm1.81.13a32.63,32.63,0,0,0,7.36-9.29,24.65,24.65,0,0,0-7.36-1.42v10.71Z"/></svg>