<svg width="24" height="24" viewBox="0 0 24 24" fill="none" xmlns="http://www.w3.org/2000/svg">
<path fill-rule="evenodd" clip-rule="evenodd" d="M22 7C22 6.44772 21.5523 6 21 6H3C2.44772 6 2 6.44772 2 7V13C2 13.5523 2.44772 14 3 14H21C21.5523 14 22 13.5523 22 13V7ZM3 7H4V13H3V7ZM5 7H6V13H5V7ZM7 7H8V13H7V7ZM9 7H10V13H9V7ZM11 7H12V13H11V7ZM13 7H14V13H13V7ZM15 7H16V13H15V7ZM17 7H18V13H17V7ZM19 7H20V13H19V7ZM22 18.5C22 17.6716 21.3284 17 20.5 17C19.6716 17 19 17.6716 19 18.5C19 17.6716 18.3284 17 17.5 17C16.6716 17 16 17.6716 16 18.5C16 19.3284 16.6716 20 17.5 20C18.3284 20 19 19.3284 19 18.5C19 19.3284 19.6716 20 20.5 20C21.3284 20 22 19.3284 22 18.5ZM8 18.5C8 17.6716 7.32843 17 6.5 17C5.67157 17 5 17.6716 5 18.5C5 17.6716 4.32843 17 3.5 17C2.67157 17 2 17.6716 2 18.5C2 19.3284 2.67157 20 3.5 20C4.32843 20 5 19.3284 5 18.5C5 19.3284 5.67157 20 6.5 20C7.32843 20 8 19.3284 8 18.5ZM9 16L7 15H2V16H7L9 17H15L17 16H22V15H17L15 16H9Z" fill="currentColor"/>
</svg>
