<svg width="21" height="22" viewBox="0 0 21 22" fill="none" xmlns="http://www.w3.org/2000/svg">
<path d="M14.0023 18.68C15.2223 19.53 16.6123 20 18.0023 20H20.0023V22H18.0023C16.6223 22 15.2623 21.66 14.0023 21.01C11.4823 22.3 8.52233 22.3 6.00233 21.01C4.74233 21.65 3.38233 22 2.00233 22H0.00233006V20H2.00233C3.39233 20 4.78233 19.53 6.00233 18.68C8.44233 20.39 11.5623 20.39 14.0023 18.68ZM16.0023 0C17.1023 0 18.0023 0.9 18.0023 2V9.62L19.2823 10.04C19.5423 10.12 19.7623 10.3 19.8823 10.54C20.0023 10.78 20.0223 11.06 19.9423 11.32L18.0523 18H18.0023C16.4023 18 14.9823 17.12 14.0023 16C13.0223 17.12 11.6023 18 10.0023 18C8.40233 18 6.98233 17.12 6.00233 16C5.02233 17.12 3.60233 18 2.00233 18H1.95233L0.05233 11.32C-0.03767 11.06 -0.00767004 10.78 0.11233 10.54C0.23233 10.3 0.45233 10.12 0.71233 10.04L2.00233 9.62V2C2.00233 0.9 2.90233 0 4.00233 0H16.0023ZM16.0023 2H4.00233V8.97L10.0023 7L16.0023 8.97V2Z" fill="currentColor"/>
</svg>
