<svg width="24" height="24" viewBox="0 0 24 24" fill="none" xmlns="http://www.w3.org/2000/svg">
<path d="M18 4H15.9142C15.649 4 15.3946 3.89464 15.2071 3.70711L14.7929 3.29289C14.6054 3.10536 14.351 3 14.0858 3H9.91421C9.649 3 9.39464 3.10536 9.20711 3.29289L8.79289 3.70711C8.60536 3.89464 8.351 4 8.08579 4H6C5.44772 4 5 4.44772 5 5C5 5.55228 5.44772 6 6 6H18C18.5523 6 19 5.55228 19 5C19 4.44772 18.5523 4 18 4ZM18 7V19C18 20.1 17.1 21 16 21H8C6.9 21 6 20.1 6 19V7H18ZM12 9C11.4477 9 11 9.44772 11 10V16C11 16.5523 11.4477 17 12 17C12.5523 17 13 16.5523 13 16V10C13 9.44772 12.5523 9 12 9ZM7.5 9C7.22386 9 7 9.22386 7 9.5V16.5C7 16.7761 7.22386 17 7.5 17C7.77614 17 8 16.7761 8 16.5V9.5C8 9.22386 7.77614 9 7.5 9ZM16.5 9C16.2239 9 16 9.22386 16 9.5V16.5C16 16.7761 16.2239 17 16.5 17C16.7761 17 17 16.7761 17 16.5V9.5C17 9.22386 16.7761 9 16.5 9Z" fill="black"/>
</svg>
