<svg width="24" height="24" viewBox="0 0 24 24" fill="none" xmlns="http://www.w3.org/2000/svg">
<path d="M17 5V6H20L23 10V15H22C22 16.6569 20.6569 18 19 18C17.3431 18 16 16.6569 16 15H13C13 16.6569 11.6569 18 10 18C8.34315 18 7 16.6569 7 15C7 16.6569 5.65685 18 4 18C2.34315 18 1 16.6569 1 15V13L1.76381 13.0001C2.31313 12.3863 3.11145 12 4 12C4.88855 12 5.68687 12.3863 6.23619 13.0001H7.76381C8.31313 12.3863 9.11145 12 10 12C10.8885 12 11.6869 12.3863 12.2362 13.0001L15 13V5H17ZM4 13.5C3.17 13.5 2.5 14.17 2.5 15C2.5 15.83 3.17 16.5 4 16.5C4.83 16.5 5.5 15.83 5.5 15C5.5 14.17 4.83 13.5 4 13.5ZM19 13.5C18.17 13.5 17.5 14.17 17.5 15C17.5 15.83 18.17 16.5 19 16.5C19.83 16.5 20.5 15.83 20.5 15C20.5 14.17 19.83 13.5 19 13.5ZM10 13.5C9.17 13.5 8.5 14.17 8.5 15C8.5 15.83 9.17 16.5 10 16.5C10.83 16.5 11.5 15.83 11.5 15C11.5 14.17 10.83 13.5 10 13.5ZM19.5 7.5H17V10H21.46L19.5 7.5Z" fill="currentColor"/>
</svg>
